<?xml version="1.0" encoding="UTF-8"?>
<svg width="20px" height="18px" viewBox="0 0 20 18" version="1.1" xmlns="http://www.w3.org/2000/svg" xmlns:xlink="http://www.w3.org/1999/xlink" fill="#7878FA">
    <g id="pod-icon" stroke="none" stroke-width="1" fill-rule="evenodd">
        <g transform="translate(-2.000000, -3.000000)">
            <path d="M19.8737,12.4902 C20.0437,12.1872 20.0437,11.8122 19.8737,11.5102 L16.2057,5.5102 C16.0287,5.1952 15.6947,5.0002 15.3337,5.0002 L8.6737,5.0002 C8.3127,5.0002 7.9787,5.1952 7.8017,5.5092 L4.1257,11.5102 C3.9557,11.8122 3.9557,12.1872 4.1257,12.4902 L7.8017,18.4902 C7.9787,18.8042 8.3127,19.0002 8.6737,19.0002 L15.3337,19.0002 C15.6947,19.0002 16.0287,18.8042 16.2057,18.4902 L19.8737,12.4902 Z M21.6167,10.5292 C22.1277,11.4362 22.1277,12.5632 21.6167,13.4712 L17.9487,19.4702 C17.4177,20.4142 16.4157,21.0002 15.3337,21.0002 L8.6737,21.0002 C7.5907,21.0002 6.5887,20.4142 6.0587,19.4702 L2.3827,13.4702 C1.8727,12.5632 1.8727,11.4362 2.3827,10.5292 L6.0587,4.5292 C6.5887,3.5862 7.5907,3.0002 8.6737,3.0002 L15.3337,3.0002 C16.4157,3.0002 17.4177,3.5862 17.9487,4.5302 L21.6167,10.5292 Z M15.4371,7.0542 C15.6761,7.1922 15.7581,7.4982 15.6201,7.7372 L15.1201,8.6032 C14.9811,8.8422 14.6761,8.9242 14.4371,8.7862 L13.5711,8.2862 C13.3321,8.1482 13.2491,7.8422 13.3881,7.6032 L13.8881,6.7372 C14.0261,6.4982 14.3321,6.4162 14.5711,6.5542 L15.4371,7.0542 Z M10.1198,6.7368 L10.6198,7.6028 C10.7578,7.8418 10.6758,8.1478 10.4368,8.2858 L9.5708,8.7858 C9.3318,8.9238 9.0258,8.8418 8.8878,8.6028 L8.3878,7.7368 C8.2498,7.4978 8.3318,7.1918 8.5708,7.0538 L9.4368,6.5538 C9.6768,6.4158 9.9818,6.4978 10.1198,6.7368 Z M7.5035,10.9995 C7.7795,10.9995 8.0035,11.2235 8.0035,11.4995 L8.0035,12.4995 C8.0035,12.7755 7.7795,12.9995 7.5035,12.9995 L6.5035,12.9995 C6.2275,12.9995 6.0035,12.7755 6.0035,12.4995 L6.0035,11.4995 C6.0035,11.2235 6.2275,10.9995 6.5035,10.9995 L7.5035,10.9995 Z M10.4362,15.7139 C10.6752,15.8519 10.7572,16.1579 10.6192,16.3969 L10.1192,17.2629 C9.9812,17.5019 9.6752,17.5839 9.4362,17.4459 L8.5702,16.9459 C8.3312,16.8079 8.2492,16.5019 8.3872,16.2629 L8.8872,15.3969 C9.0252,15.1579 9.3312,15.0759 9.5702,15.2139 L10.4362,15.7139 Z M15.1193,15.3975 L15.6193,16.2635 C15.7573,16.5025 15.6753,16.8085 15.4363,16.9465 L14.5703,17.4465 C14.3303,17.5845 14.0253,17.5025 13.8873,17.2635 L13.3873,16.3975 C13.2493,16.1585 13.3313,15.8525 13.5703,15.7145 L14.4363,15.2145 C14.6753,15.0765 14.9813,15.1585 15.1193,15.3975 Z M17.5035,11.0005 C17.7795,11.0005 18.0035,11.2245 18.0035,11.5005 L18.0035,12.5005 C18.0035,12.7765 17.7795,13.0005 17.5035,13.0005 L16.5035,13.0005 C16.2275,13.0005 16.0035,12.7765 16.0035,12.5005 L16.0035,11.5005 C16.0035,11.2245 16.2275,11.0005 16.5035,11.0005 L17.5035,11.0005 Z" id="Combined-Shape"></path>
        </g>
    </g>
</svg>