<svg xmlns="http://www.w3.org/2000/svg" xmlns:xlink="http://www.w3.org/1999/xlink" width="14px" height="8px" viewBox="0 0 14 8" version="1.1">
    <!-- Generator: sketchtool 52.5 (67469) - http://www.bohemiancoding.com/sketch -->
    <title>D9576B80-D72F-4784-960C-D12D34519721</title>
    <desc>Created with sketchtool.</desc>
    <g id="Pod-Management" stroke="none" stroke-width="1" fill="none" fill-rule="evenodd">
        <g id="105_wi-fi" transform="translate(-332.000000, -260.000000)" fill="#7878FA">
            <g id="Group" transform="translate(16.000000, 212.000000)">
                <g id="molecule/inputfield/default">
                    <g id="atom/inputfield/default" transform="translate(0.000000, 28.000000)">
                        <g id="3" transform="translate(311.000000, 12.000000)">
                            <path d="M15.694,5.30836541 C15.286,4.89721153 14.625,4.89721153 14.216,5.30836541 L8.306,11.2569524 C8.117,11.4462304 8,11.7091165 8,12.0003943 C8,12.2906206 8.117,12.5535067 8.306,12.7438363 L14.216,18.6924232 C14.625,19.1025256 15.286,19.1025256 15.694,18.6924232 C16.102,18.2812694 16.102,17.6156417 15.694,17.2044878 L10.523,12.0003943 L15.694,6.79524927 C16.102,6.38409539 16.102,5.71846775 15.694,5.30836541" id="Fill-1" transform="translate(12.000000, 12.000000) rotate(-90.000000) translate(-12.000000, -12.000000) "/>
                        </g>
                    </g>
                </g>
            </g>
        </g>
    </g>
</svg>
