<svg xmlns="http://www.w3.org/2000/svg" xmlns:xlink="http://www.w3.org/1999/xlink" width="120px" height="120px" viewBox="0 0 120 120" version="1.1">
    <!-- Generator: sketchtool 52.5 (67469) - http://www.bohemiancoding.com/sketch -->
    <title>786A611D-98EE-4BA3-AD1C-E506AC83AF43</title>
    <desc>Created with sketchtool.</desc>
    <g id="Pod-Management" stroke="none" stroke-width="1">
        <g id="104_Connection" transform="translate(-160.000000, -128.000000)" fill="#7878FA">
            <g id="Group-2" transform="translate(33.000000, 100.000000)">
                <g id="Group" transform="translate(99.000000, 0.000000)">
                    <g id="atom/icon/icon-pod" transform="translate(64.000000, 64.000000)">
                      <circle cx="24" cy="24" r="50" stroke="#7878FA" stroke-width="2" fill="none"/>
                      <path d="M33.9004009,21.9999995 C33.7204009,19.9799996 33.2404009,18.0599996 32.6204009,16.2799997 C34.120401,15.7199997 35.500401,15.0399997 36.720401,14.3199997 C38.4004011,16.5199996 39.5204011,19.1399996 39.8804011,21.9999995 L33.9004009,21.9999995 Z M36.720401,33.6799998 C35.500401,32.9599998 34.120401,32.2799999 32.6204009,31.7199999 C33.2404009,29.9399999 33.7204009,28.02 33.9004009,26 L39.8804011,26 C39.5204011,28.8599999 38.4004011,31.4799999 36.720401,33.6799998 Z M28.7403998,39.2799997 C29.5003998,38.1599997 30.3003998,36.8599997 31.0403998,35.3999996 C32.0003998,35.7799996 32.9203998,36.1999996 33.7803998,36.6399997 C32.2803998,37.7999997 30.5803998,38.6999997 28.7403998,39.2799997 Z M24.0003996,38.9400001 C23.1263996,37.842 21.9703997,36.248 20.9003997,34.28 C21.9003997,34.1 22.9403996,34 24.0003996,34 C25.0603996,34 26.1003995,34.1 27.1003995,34.28 C26.0283995,36.248 24.8723996,37.842 24.0003996,38.9400001 Z M14.2204003,36.6399997 C15.0804003,36.1999996 16.0004003,35.7799996 16.9604003,35.3999996 C17.7004003,36.8599997 18.5004003,38.1599997 19.2604003,39.2799997 C17.4204003,38.6999997 15.7204003,37.7999997 14.2204003,36.6399997 Z M8.12039995,26 L14.1004001,26 C14.2804001,28.02 14.7604002,29.9399999 15.3804002,31.7199999 C13.8804001,32.2799999 12.5004001,32.9599998 11.2804001,33.6799998 C9.6004,31.4799999 8.48039996,28.8599999 8.12039995,26 Z M11.2804001,14.3199997 C12.5004001,15.0399997 13.8804001,15.7199997 15.3804002,16.2799997 C14.7604002,18.0599996 14.2804001,19.9799996 14.1004001,21.9999995 L8.12039995,21.9999995 C8.48039996,19.1399996 9.6004,16.5199996 11.2804001,14.3199997 Z M19.2604003,8.71999979 C18.5004003,9.83999982 17.7004003,11.1399999 16.9604003,12.5999999 C16.0004003,12.2199999 15.0804003,11.7999999 14.2204003,11.3599999 C15.7204003,10.1999998 17.4204003,9.29999981 19.2604003,8.71999979 Z M24.0003996,9.05999994 C24.8723996,10.158 26.0283995,11.752 27.1003995,13.72 C26.1003995,13.9 25.0603996,14 24.0003996,14 C22.9403996,14 21.9003997,13.9 20.9003997,13.72 C21.9703997,11.752 23.1263996,10.158 24.0003996,9.05999994 Z M29.8804002,26 C29.6804002,27.6 29.3004002,29.12 28.7804002,30.5599999 C27.2604001,30.2199999 25.6604001,29.9999999 24.0004001,29.9999999 C22.3404,29.9999999 20.7404,30.2199999 19.2204,30.5599999 C18.7004,29.12 18.3204,27.6 18.1204,26 L24.0004001,26 L29.8804002,26 Z M24.0004001,21.9999995 L18.1204,21.9999995 C18.3204,20.3999995 18.7004,18.8799996 19.2204,17.4399996 C20.7404,17.7799996 22.3404,17.9999996 24.0004001,17.9999996 C25.6604001,17.9999996 27.2604001,17.7799996 28.7804002,17.4399996 C29.3004002,18.8799996 29.6804002,20.3999995 29.8804002,21.9999995 L24.0004001,21.9999995 Z M33.7803998,11.3599999 C32.9203998,11.7999999 32.0003998,12.2199999 31.0403998,12.5999999 C30.3003998,11.1399999 29.5003998,9.83999982 28.7403998,8.71999979 C30.5803998,9.29999981 32.2803998,10.1999998 33.7803998,11.3599999 Z M40.1004001,12.16 C39.3204001,11.06 38.4004001,10.06 37.4004001,9.16 C33.8604001,5.96 29.1604001,4 24.0004001,4 C18.8404001,4 14.1404001,5.96 10.6004001,9.16 C9.60040007,10.06 8.68040007,11.06 7.90040007,12.16 C5.44040007,15.48 4.00040007,19.56 4.00040007,24 C4.00040007,28.44 5.44040007,32.52 7.90040007,35.84 C8.68040007,36.94 9.60040007,37.94 10.6004001,38.84 C14.1404001,42.04 18.8404001,44 24.0004001,44 C29.1604001,44 33.8604001,42.04 37.4004001,38.84 C38.4004001,37.94 39.3204001,36.94 40.1004001,35.84 C42.5604001,32.52 44.0004001,28.44 44.0004001,24 C44.0004001,19.56 42.5604001,15.48 40.1004001,12.16 Z" id="Fill-1"/>
                    </g>
                </g>
            </g>
        </g>
    </g>
</svg>
