<?xml version="1.0" encoding="UTF-8"?>
<svg width="24px" height="24px" viewBox="0 0 24 24" version="1.1" xmlns="http://www.w3.org/2000/svg" xmlns:xlink="http://www.w3.org/1999/xlink">
    <g id="atom/icon/icon-microphone" stroke="none" stroke-width="1" fill="none" fill-rule="evenodd">
        <path d="M12,14 C10.3431458,14 9,12.6568542 9,11 L9,5 C9.00000002,3.34314577 10.3431458,2.00000004 12,2.00000004 C13.6568542,2.00000004 15,3.34314577 15,5 L15,11 C15,12.6568542 13.6568542,14 12,14 Z M19,12.14 C18.4710761,15.1671512 16.0447895,17.504474 13,17.92 L13,21 C13,21.5522847 12.5522847,22 12,22 C11.4477153,22 11,21.5522847 11,21 L11,17.92 C7.9552105,17.504474 5.52892386,15.1671512 5,12.14 C4.95919406,11.8515016 5.04624518,11.5595536 5.23838552,11.3405136 C5.43052586,11.1214736 5.70864424,10.9971284 6,11 C6.49864337,10.9943628 6.92523058,11.3569619 7,11.85 C7.38302173,14.3150107 9.50540921,16.133083 12,16.133083 C14.4945908,16.133083 16.6169783,14.3150107 17,11.85 C17.0747694,11.3569619 17.5013566,10.9943628 18,11 C18.2913558,10.9971284 18.5694741,11.1214736 18.7616145,11.3405136 C18.9537548,11.5595536 19.0408059,11.8515016 19,12.14 Z" id="icon-microphone" fill-rule="nonzero"></path>
    </g>
</svg>