<?xml version="1.0" encoding="UTF-8"?>
<svg width="16px" height="10px" viewBox="0 0 16 10" version="1.1" xmlns="http://www.w3.org/2000/svg" xmlns:xlink="http://www.w3.org/1999/xlink">
    <!-- Generator: sketchtool 52.5 (67469) - http://www.bohemiancoding.com/sketch -->
    <title>5CCB9B4D-B0BD-4FC2-8106-3E595B5FC8A9</title>
    <desc>Created with sketchtool.</desc>
    <g id="Pod-Management" stroke="none" stroke-width="1" fill="none" fill-rule="evenodd">
        <g id="105_wi-fi" transform="translate(-331.000000, -351.000000)" fill="#7878FA">
            <g id="molecule/inputfield/default" transform="translate(16.000000, 304.000000)">
                <g id="atom/inputfield/default" transform="translate(0.000000, 28.000000)">
                    <g id="3" transform="translate(311.000000, 12.000000)">
                        <path d="M11.9309,11 C13.5879,11 14.9309,12.343 14.9309,14 C14.9309,15.657 13.5879,17 11.9309,17 C10.2739,17 8.9309,15.657 8.9309,14 C8.9309,12.343 10.2739,11 11.9309,11 Z M11.9309,7 C16.0099,7 19.3689,10.055 19.8619,14 L17.8409,14 C17.3639,11.164 14.9029,9 11.9309,9 C8.9589,9 6.4979,11.164 6.0209,14 L3.9999,14 C4.4929,10.055 7.8519,7 11.9309,7 Z" id="Combined-Shape"></path>
                    </g>
                </g>
            </g>
        </g>
    </g>
</svg>
