<svg xmlns="http://www.w3.org/2000/svg" xmlns:xlink="http://www.w3.org/1999/xlink" width="15px" height="10px" viewBox="0 0 15 10" version="1.1">
    <!-- Generator: sketchtool 52.5 (67469) - http://www.bohemiancoding.com/sketch -->
    <title>B1217F7B-76D8-4D93-8D55-DE2B695BD5D0</title>
    <desc>Created with sketchtool.</desc>
    <g id="Pod-Management" stroke="none" stroke-width="1" fill="none" fill-rule="evenodd">
        <g id="105_wi-fi-dropdown" transform="translate(-307.000000, -259.000000)">
            <g id="molecule/inputfield/default" transform="translate(16.000000, 212.000000)">
                <g id="Network" transform="translate(12.000000, 40.000000)">
                    <g id="2" transform="translate(275.000000, 0.000000)">
                        <path d="M11.07,7 C13.83,7 16.33,8.12 18.14,9.93 L16.72,11.35 C15.27,9.9 13.27,9 11.07,9 C8.87,9 6.87,9.9 5.42,11.35 L4,9.93 C5.81,8.12 8.31,7 11.07,7 Z M6.8298,12.7598 C7.9098,11.6698 9.4098,10.9998 11.0698,10.9998 C12.7298,10.9998 14.2298,11.6698 15.3098,12.7598 L13.8998,14.1698 C13.1698,13.4498 12.1698,12.9998 11.0698,12.9998 C9.9698,12.9998 8.9698,13.4498 8.2398,14.1698 L6.8298,12.7598 Z M9.6599,15.5898 C10.0199,15.2198 10.5199,14.9998 11.0699,14.9998 C11.6199,14.9998 12.1199,15.2198 12.4799,15.5898 L11.0699,16.9998 L9.6599,15.5898 Z" id="Grey" fill="#AAAAB3" opacity="0.299999982"/>
                        <path d="M9.6599,15.5898 C10.0199,15.2198 10.5199,14.9998 11.0699,14.9998 C11.6199,14.9998 12.1199,15.2198 12.4799,15.5898 L11.0699,16.9998 L9.6599,15.5898 Z" id="Blue" fill="#7878FA"/>
                    </g>
                </g>
            </g>
        </g>
    </g>
</svg>
