<svg width="24" height="24" viewBox="0 0 24 24" fill="none" xmlns="http://www.w3.org/2000/svg">
<path fill-rule="evenodd" clip-rule="evenodd" d="M14.5854 4.84654C14.6614 4.91988 15.5003 5.72945 15.5003 7.11429V14.1429L12.8755 12.6857V6.21429C12.8755 5.61429 12.6568 5.27143 12.5693 5.18571C12.2631 4.84286 11.6944 4.75714 11.0382 4.84286C8.85088 5.18571 7.66973 7.8 7.62598 10.1143V18.8571L5.00121 17.4V10.0286C4.95746 7.41429 6.09486 3.98571 9.37583 3.17143C9.37583 3.17143 9.85704 3 10.5132 3C10.9069 3 11.3444 3.08571 11.6944 3.21429C12.4818 3.47143 13.5755 3.98571 14.1442 4.5C14.1442 4.5 14.4066 4.67143 14.5816 4.84286C14.5825 4.84375 14.5838 4.84498 14.5854 4.84654ZM16.3745 17.9571L18.9993 16.7142V20.9999H11.125L13.9247 19.3714L10.6875 17.6142L13.3123 16.2856L16.3745 17.9571Z" fill="#7878FA"/>
</svg>
