<?xml version="1.0" encoding="UTF-8"?>
<svg width="17px" height="27px" viewBox="0 0 17 27" version="1.1" xmlns="http://www.w3.org/2000/svg" xmlns:xlink="http://www.w3.org/1999/xlink">
    <!-- Generator: sketchtool 49.3 (51167) - http://www.bohemiancoding.com/sketch -->
    <title>E09917BD-1AC4-4BDB-8CD8-AB9063E7622D</title>
    <desc>Created with sketchtool.</desc>
    <defs></defs>

    <g id="Page-2" stroke="none" stroke-width="1" fill="none" fill-rule="evenodd">
        <g id="5" transform="translate(-268.000000, -68.000000)">
            <g id="Group-1" transform="translate(195.000000, 16.000000)">
                <g id="Group-9" transform="translate(48.000000, 32.000000)">
                    <g id="Group-4" transform="translate(25.000000, 20.000000)">
                        <path d="M8.91875,15.175 C10.9915625,15.175 12.6875,13.4790625 12.6875,11.40625 L12.6875,3.86875 C12.6875,1.7959375 10.9915625,0.1 8.91875,0.1 C6.8459375,0.1 5.15,1.7959375 5.15,3.86875 L5.15,11.40625 C5.15,13.4790625 6.8459375,15.175 8.91875,15.175" id="Fill-1"></path>
                        <path d="M15.9909722,10.15 C15.5029889,10.15 15.1069444,10.5460444 15.1069444,11.0340278 L15.1069444,11.7023528 C15.1069444,14.8468396 12.8526736,17.6536278 9.73293958,18.0540924 C5.95990903,18.5385396 2.73055556,15.5982632 2.73055556,11.9180556 L2.73055556,11.0340278 C2.73055556,10.5460444 2.33451111,10.15 1.84652778,10.15 C1.35854444,10.15 0.9625,10.5460444 0.9625,11.0340278 L0.9625,11.645775 C0.9625,15.7626924 3.98410694,19.3633375 8.03472222,19.8159597 L8.03472222,24.2944444 L5.38263889,24.2944444 C4.89465556,24.2944444 4.49861111,24.6904889 4.49861111,25.1784722 C4.49861111,25.6664556 4.89465556,26.0625 5.38263889,26.0625 L12.4548611,26.0625 C12.9428444,26.0625 13.3388889,25.6664556 13.3388889,25.1784722 C13.3388889,24.6904889 12.9428444,24.2944444 12.4548611,24.2944444 L9.80277778,24.2944444 L9.80277778,19.8159597 C13.7800187,19.3748299 16.875,16.0119882 16.875,11.9180556 L16.875,11.0340278 C16.875,10.5460444 16.4789556,10.15 15.9909722,10.15" id="Fill-3"></path>
                    </g>
                </g>
            </g>
        </g>
    </g>
</svg>