<svg width="24" height="24" viewBox="0 0 24 24" xmlns="http://www.w3.org/2000/svg">
<path fill="#7878FA" fill-rule="evenodd" clip-rule="evenodd" d="M3 12C3 7.0293 7.0293 3 12 3C16.9707 3 21 7.0293 21 12C21 16.9707 16.9707 21 12 21C7.0293 21 3 16.9707 3 12ZM11.957 11.4277L12.8193 10.6001C13.0303 10.4062 13.1543 10.1396 13.1543 9.8457C13.1543 9.26318 12.6445 8.76611 12 8.76611C11.3555 8.76611 10.8457 9.26318 10.8457 9.8457V10H9V9.8457C9 8.26318 10.3535 7 12 7C13.6465 7 15 8.26318 15 9.8457C15 10.4878 14.7217 11.0698 14.2852 11.4829L13.6631 12.0845C13.417 12.3198 13.2393 12.5146 13.1172 12.7583C13 12.9932 13 13.0322 13 13.4673V13.5V14H11V13.5C11 12.7129 11.418 11.9448 11.957 11.4277ZM13 17V15H11V17H13Z"/>
</svg>
