<svg width="24" height="24" viewBox="0 0 12 12" xmlns="http://www.w3.org/2000/svg">
    <path d="M11.6065,10.1924 L7.3635,5.9494 L11.6065,1.7074 C11.9975,1.3164 11.9975,0.6834 11.6065,0.2934 C11.2155,-0.0976 10.5835,-0.0976 10.1925,0.2934 L5.9495,4.5354 L1.7075,0.2934 C1.3165,-0.0976 0.6835,-0.0976 0.2935,0.2934 C-0.0975,0.6834 -0.0975,1.3164 0.2935,1.7074 L4.5355,5.9494 L0.2935,10.1924 C-0.0975,10.5834 -0.0975,11.2154 0.2935,11.6064 C0.6835,11.9974 1.3165,11.9974 1.7075,11.6064 L5.9495,7.3634 L10.1925,11.6064 C10.5835,11.9974 11.2155,11.9974 11.6065,11.6064 C11.9975,11.2154 11.9975,10.5834 11.6065,10.1924" class="remove-icon" fill="#AAAAB3"></path>
</svg>