<svg width="24" height="24" viewBox="0 0 24 24" fill="none" xmlns="http://www.w3.org/2000/svg">
<path fill-rule="evenodd" clip-rule="evenodd" d="M18.9434 12C18.9434 12.3037 18.92 12.5962 18.8848 12.8774L20.8174 14.3623C21.003 14.4976 21.0489 14.7339 20.9336 14.936L19.0821 18.0527C18.9658 18.2549 18.7237 18.334 18.5147 18.2549L16.2119 17.355C15.7373 17.7036 15.2168 18.0073 14.6504 18.2324L14.3028 20.6177C14.2793 20.8423 14.083 21 13.8516 21H10.1485C9.91702 21 9.73245 20.8423 9.68558 20.6177L9.3389 18.2324C8.77151 18.0073 8.26272 17.7148 7.7764 17.355L5.47366 18.2549C5.26565 18.3223 5.02249 18.2549 4.90628 18.0527L3.05472 14.936C2.9512 14.7451 2.9971 14.4976 3.17093 14.3623L5.126 12.8774C5.08011 12.5962 5.05667 12.2925 5.05667 12C5.05667 11.7075 5.09183 11.4038 5.13772 11.1226L3.18265 9.6377C2.9971 9.50244 2.9512 9.26611 3.06643 9.06396L4.918 5.94727C5.03421 5.74512 5.2764 5.66602 5.48538 5.74512L7.78811 6.64502C8.26272 6.29639 8.78323 5.99268 9.34964 5.76758L9.69729 3.38232C9.73245 3.15771 9.91702 3 10.1485 3H13.8516C14.083 3 14.2793 3.15771 14.3145 3.38232L14.6612 5.76758C15.2285 5.99268 15.7373 6.28516 16.2237 6.64502L18.5264 5.74512C18.7344 5.67773 18.9776 5.74512 19.0938 5.94727L20.9453 9.06396C21.0489 9.25488 21.003 9.50244 20.8291 9.6377L18.8741 11.1226C18.92 11.4038 18.9434 11.6963 18.9434 12ZM12 15.5C13.9326 15.5 15.5 13.9331 15.5 12C15.5 10.0669 13.9326 8.5 12 8.5C10.0674 8.5 8.50003 10.0669 8.50003 12C8.50003 13.9331 10.0674 15.5 12 15.5Z" fill="#7878FA"/>
</svg>
