<?xml version="1.0" encoding="UTF-8"?>
<svg width="24px" height="24px" viewBox="0 0 24 24" version="1.1" xmlns="http://www.w3.org/2000/svg" xmlns:xlink="http://www.w3.org/1999/xlink">
    <!-- Generator: Sketch 50.2 (55047) - http://www.bohemiancoding.com/sketch -->
    <title>atom/icon/icon-record</title>
    <desc>Created with Sketch.</desc>
    <defs>
        <linearGradient x1="-33.2875%" y1="-94.4335938%" x2="133.289583%" y2="167.96875%" id="linearGradient-1">
            <stop stop-color="#764BFF" offset="0%"></stop>
            <stop stop-color="#7BB7F1" offset="100%"></stop>
        </linearGradient>
    </defs>
    <g id="atom/icon/icon-record" stroke="none" stroke-width="1" fill="none" fill-rule="evenodd">
        <circle id="Oval" fill="url(#linearGradient-1)" fill-rule="nonzero" cx="12" cy="12" r="4"></circle>
        <path d="M12,2 C6.4771525,2 2,6.4771525 2,12 C2,17.5228475 6.4771525,22 12,22 C17.5228475,22 22,17.5228475 22,12 C22,9.3478351 20.9464316,6.80429597 19.0710678,4.92893219 C17.195704,3.0535684 14.6521649,2 12,2 Z M12,20 C7.581722,20 4,16.418278 4,12 C4,7.581722 7.581722,4 12,4 C16.418278,4 20,7.581722 20,12 C20,14.1217319 19.1571453,16.1565632 17.6568542,17.6568542 C16.1565632,19.1571453 14.1217319,20 12,20 Z" id="Shape" fill="url(#linearGradient-1)" fill-rule="nonzero"></path>
    </g>
</svg>