<?xml version="1.0" encoding="UTF-8"?>
<svg width="24px" height="24px" viewBox="0 0 24 24" version="1.1" xmlns="http://www.w3.org/2000/svg" xmlns:xlink="http://www.w3.org/1999/xlink">
    <!-- Generator: Sketch 50.2 (55047) - http://www.bohemiancoding.com/sketch -->
    <title>atom/icon/icon-search</title>
    <desc>Created with Sketch.</desc>
    <defs>
        <linearGradient x1="-33.2875%" y1="-94.4335938%" x2="133.289583%" y2="167.96875%" id="linearGradient-1">
            <stop stop-color="#764BFF" offset="0%"></stop>
            <stop stop-color="#7BB7F1" offset="100%"></stop>
        </linearGradient>
    </defs>
    <g id="atom/icon/icon-search" stroke="none" stroke-width="1" fill="none" fill-rule="evenodd">
        <path d="M10.9932912,3 C7.94933864,2.99565295 5.25219356,4.96198507 4.32346237,7.86258554 C3.39473117,10.763186 4.4477554,13.9317494 6.92750893,15.6981951 C9.40726245,17.4646407 12.7441139,17.4231932 15.1792815,15.5956986 L19.2753579,19.7042955 C19.4629448,19.8935435 19.7182961,19.9999928 19.9846785,19.9999928 C20.2510608,19.9999928 20.5064121,19.8935435 20.693999,19.7042955 C20.8831305,19.516593 20.9895143,19.2610844 20.9895143,18.9945378 C20.9895143,18.7279913 20.8831305,18.4724827 20.693999,18.2847802 L16.5879321,14.1861799 C18.1713191,12.0658272 18.4235439,9.2329828 17.2396959,6.86594314 C16.0558478,4.49890347 13.6385637,3.00282957 10.9932912,3 Z M10.9932912,14.9959034 C8.23451003,14.9959034 5.99807603,12.7580913 5.99807603,9.99761031 C5.99807603,7.23712926 8.23451003,4.99931723 10.9932912,4.99931723 C13.7520723,4.99931723 15.9885063,7.23712926 15.9885063,9.99761031 C15.9885063,12.7580913 13.7520723,14.9959034 10.9932912,14.9959034 Z" id="icon-search" fill="url(#linearGradient-1)" fill-rule="nonzero"></path>
    </g>
</svg>