<svg width="24" height="24" viewBox="0 0 24 24" fill="none" xmlns="http://www.w3.org/2000/svg">
<mask id="path-1-inside-1" fill="white">
<path fill-rule="evenodd" clip-rule="evenodd" d="M11 5L12 7H21V10H23L20 19H19.5H3V7L4 5H11ZM5.77485 17H18.5585L20.2251 12H7.44152L5.77485 17ZM19 10H6L5 13V7.47214L5.23607 7H9.76393L10.7639 9H19V10Z"/>
</mask>
<path fill-rule="evenodd" clip-rule="evenodd" d="M11 5L12 7H21V10H23L20 19H19.5H3V7L4 5H11ZM5.77485 17H18.5585L20.2251 12H7.44152L5.77485 17ZM19 10H6L5 13V7.47214L5.23607 7H9.76393L10.7639 9H19V10Z" fill="#F8F8F8"/>
<path d="M12 7L10.2111 7.89443L10.7639 9H12V7ZM11 5L12.7889 4.10557L12.2361 3H11V5ZM21 7H23V5H21V7ZM21 10H19V12H21V10ZM23 10L24.8974 10.6325L25.7749 8H23V10ZM20 19V21H21.4415L21.8974 19.6325L20 19ZM3 19H1V21H3V19ZM3 7L1.21115 6.10557L1 6.52786V7H3ZM4 5V3H2.76393L2.21115 4.10557L4 5ZM5.77485 17L3.87749 16.3675L3 19H5.77485V17ZM18.5585 17V19H20L20.4558 17.6325L18.5585 17ZM20.2251 12L22.1225 12.6325L23 10H20.2251V12ZM7.44152 12V10H6L5.54415 11.3675L7.44152 12ZM19 10V12H21V10H19ZM6 10V8H4.55848L4.10263 9.36754L6 10ZM5 13H3L6.89737 13.6325L5 13ZM5 7.47214L3.21115 6.57771L3 7V7.47214H5ZM5.23607 7V5H4L3.44721 6.10557L5.23607 7ZM9.76393 7L11.5528 6.10557L11 5H9.76393V7ZM10.7639 9L8.97508 9.89443L9.52786 11H10.7639V9ZM19 9H21V7H19V9ZM13.7889 6.10557L12.7889 4.10557L9.21115 5.89443L10.2111 7.89443L13.7889 6.10557ZM21 5H12V9H21V5ZM23 10V7H19V10H23ZM23 8H21V12H23V8ZM21.8974 19.6325L24.8974 10.6325L21.1026 9.36754L18.1026 18.3675L21.8974 19.6325ZM19.5 21H20V17H19.5V21ZM3 21H19.5V17H3V21ZM1 7V19H5V7H1ZM2.21115 4.10557L1.21115 6.10557L4.78885 7.89443L5.78885 5.89443L2.21115 4.10557ZM11 3H4V7H11V3ZM5.77485 19H18.5585V15H5.77485V19ZM20.4558 17.6325L22.1225 12.6325L18.3278 11.3675L16.6611 16.3675L20.4558 17.6325ZM20.2251 10H7.44152V14H20.2251V10ZM5.54415 11.3675L3.87749 16.3675L7.67222 17.6325L9.33888 12.6325L5.54415 11.3675ZM19 8H6V12H19V8ZM4.10263 9.36754L3.10263 12.3675L6.89737 13.6325L7.89737 10.6325L4.10263 9.36754ZM3 7.47214V13H7V7.47214H3ZM3.44721 6.10557L3.21115 6.57771L6.78885 8.36656L7.02492 7.89443L3.44721 6.10557ZM9.76393 5H5.23607V9H9.76393V5ZM12.5528 8.10557L11.5528 6.10557L7.97508 7.89443L8.97508 9.89443L12.5528 8.10557ZM19 7H10.7639V11H19V7ZM21 10V9H17V10H21Z" fill="#7878FA" mask="url(#path-1-inside-1)"/>
</svg>
